HIERARCHY
ROOT hip
{
  OFFSET 0 0 0
  CHANNELS 6 Xposition Yposition Zposition Zrotation Yrotation Xrotation
  JOINT abdomen
  {
    OFFSET 0 20.6881 -0.73152
    CHANNELS 3 Zrotation Xrotation Yrotation
    JOINT chest
    {
      OFFSET 0 11.7043 -0.48768
      CHANNELS 3 Zrotation Xrotation Yrotation
      JOINT neck
      {
        OFFSET 0 22.1894 -2.19456
        CHANNELS 3 Zrotation Xrotation Yrotation
        JOINT head
        {
          OFFSET -0.24384 7.07133 1.2192
          CHANNELS 3 Zrotation Xrotation Yrotation
          JOINT leftEye
          {
            OFFSET 4.14528 8.04674 8.04672
            CHANNELS 3 Zrotation Xrotation Yrotation
            End Site
            {
              OFFSET 1 0 0
            }
          }
          JOINT rightEye
          {
            OFFSET -3.6576 8.04674 8.04672
            CHANNELS 3 Zrotation Xrotation Yrotation
            End Site
            {
              OFFSET 1 0 0
            }
          }
        }
      }
      JOINT rCollar
      {
        OFFSET -2.68224 19.2634 -4.8768
        CHANNELS 3 Zrotation Xrotation Yrotation
        JOINT rShldr
        {
          OFFSET -8.77824 -1.95073 1.46304
          CHANNELS 3 Zrotation Xrotation Yrotation
          JOINT rForeArm
          {
            OFFSET -28.1742 -1.7115 0.48768
            CHANNELS 3 Zrotation Xrotation Yrotation
            JOINT rHand
            {
              OFFSET -22.5879 0.773209 7.07136
              CHANNELS 3 Zrotation Xrotation Yrotation
              JOINT rThumb1
              {
                OFFSET -1.2192 -0.487915 3.41376
                CHANNELS 3 Zrotation Xrotation Yrotation
                JOINT rThumb2
                {
                  OFFSET -3.37035 -0.52449 3.41376
                  CHANNELS 3 Zrotation Xrotation Yrotation
                  End Site
                  {
                    OFFSET -1.78271 -1.18214 1.43049
                  }
                }
              }
              JOINT rIndex1
              {
                OFFSET -7.75947 0.938293 5.60832
                CHANNELS 3 Zrotation Xrotation Yrotation
                JOINT rIndex2
                {
                  OFFSET -2.54057 -0.884171 1.56538
                  CHANNELS 3 Zrotation Xrotation Yrotation
                  End Site
                  {
                    OFFSET -1.62519 -0.234802 1.16502
                  }
                }
              }
              JOINT rMid1
              {
                OFFSET -8.24714 1.18213 3.41376
                CHANNELS 3 Zrotation Xrotation Yrotation
                JOINT rMid2
                {
                  OFFSET -3.10165 -0.590103 1.0647
                  CHANNELS 3 Zrotation Xrotation Yrotation
                  End Site
                  {
                    OFFSET -2.48547 -0.328903 0.83742
                  }
                }
              }
              JOINT rRing1
              {
                OFFSET -8.82822 0.546677 1.51678
                CHANNELS 3 Zrotation Xrotation Yrotation
                JOINT rRing2
                {
                  OFFSET -2.60934 -0.819778 -0.0198488
                  CHANNELS 3 Zrotation Xrotation Yrotation
                  End Site
                  {
                    OFFSET -2.33842 -0.294052 0.168128
                  }
                }
              }
              JOINT rPinky1
              {
                OFFSET -8.27202 -0.0477905 -0.4584
                CHANNELS 3 Zrotation Xrotation Yrotation
                JOINT rPinky2
                {
                  OFFSET -1.82734 -0.647385 -0.700984
                  CHANNELS 3 Zrotation Xrotation Yrotation
                  End Site
                  {
                    OFFSET -1.69225 -0.51767 -0.607171
                  }
                }
              }
            }
          }
        }
      }
      JOINT lCollar
      {
        OFFSET 2.68224 19.2634 -4.8768
        CHANNELS 3 Zrotation Xrotation Yrotation
        JOINT lShldr
        {
          OFFSET 8.77824 -1.95073 1.46304
          CHANNELS 3 Zrotation Xrotation Yrotation
          JOINT lForeArm
          {
            OFFSET 28.1742 -1.7115 0.48768
            CHANNELS 3 Zrotation Xrotation Yrotation
            JOINT lHand
            {
              OFFSET 22.5879 0.773209 7.07136
              CHANNELS 3 Zrotation Xrotation Yrotation
              JOINT lThumb1
              {
                OFFSET 1.2192 -0.487915 3.41376
                CHANNELS 3 Zrotation Xrotation Yrotation
                JOINT lThumb2
                {
                  OFFSET 3.37035 -0.52449 3.41376
                  CHANNELS 3 Zrotation Xrotation Yrotation
                  End Site
                  {
                    OFFSET 1.78271 -1.18214 1.43049
                  }
                }
              }
              JOINT lIndex1
              {
                OFFSET 7.75947 0.938293 5.60832
                CHANNELS 3 Zrotation Xrotation Yrotation
                JOINT lIndex2
                {
                  OFFSET 2.54057 -0.884171 1.56538
                  CHANNELS 3 Zrotation Xrotation Yrotation
                  End Site
                  {
                    OFFSET 1.62519 -0.234802 1.16502
                  }
                }
              }
              JOINT lMid1
              {
                OFFSET 8.24714 1.18213 3.41376
                CHANNELS 3 Zrotation Xrotation Yrotation
                JOINT lMid2
                {
                  OFFSET 3.10165 -0.590103 1.0647
                  CHANNELS 3 Zrotation Xrotation Yrotation
                  End Site
                  {
                    OFFSET 2.48547 -0.328903 0.83742
                  }
                }
              }
              JOINT lRing1
              {
                OFFSET 8.82822 0.546677 1.51678
                CHANNELS 3 Zrotation Xrotation Yrotation
                JOINT lRing2
                {
                  OFFSET 2.60934 -0.819778 -0.0198488
                  CHANNELS 3 Zrotation Xrotation Yrotation
                  End Site
                  {
                    OFFSET 2.33842 -0.294052 0.168128
                  }
                }
              }
              JOINT lPinky1
              {
                OFFSET 8.27202 -0.0477905 -0.4584
                CHANNELS 3 Zrotation Xrotation Yrotation
                JOINT lPinky2
                {
                  OFFSET 1.82734 -0.647385 -0.700984
                  CHANNELS 3 Zrotation Xrotation Yrotation
                  End Site
                  {
                    OFFSET 1.69225 -0.51767 -0.607171
                  }
                }
              }
            }
          }
        }
      }
    }
  }
  JOINT rButtock
  {
    OFFSET -8.77824 4.35084 1.2192
    CHANNELS 3 Zrotation Xrotation Yrotation
    JOINT rThigh
    {
      OFFSET 0 -1.70687 -2.19456
      CHANNELS 3 Zrotation Xrotation Yrotation
      JOINT rShin
      {
        OFFSET 0 -36.8199 0.73152
        CHANNELS 3 Zrotation Xrotation Yrotation
        JOINT rFoot
        {
          OFFSET 0.73152 -45.1104 -5.12064
          CHANNELS 3 Zrotation Xrotation Yrotation
          End Site
          {
            OFFSET -1.1221 -3.69964 12.103
          }
        }
      }
    }
  }
  JOINT lButtock
  {
    OFFSET 8.77824 4.35084 1.2192
    CHANNELS 3 Zrotation Xrotation Yrotation
    JOINT lThigh
    {
      OFFSET 0 -1.70687 -2.19456
      CHANNELS 3 Zrotation Xrotation Yrotation
      JOINT lShin
      {
        OFFSET 0 -36.8199 0.73152
        CHANNELS 3 Zrotation Xrotation Yrotation
        JOINT lFoot
        {
          OFFSET -0.73152 -45.1104 -5.12064
          CHANNELS 3 Zrotation Xrotation Yrotation
          End Site
          {
            OFFSET 1.1221 -3.69964 12.103
          }
        }
      }
    }
  }
}
MOTION
Frames:	4
Frame Time:	0.00833333
37.5482 85.0697 -163.288 0.0 0.0 0.0 0.202514 -0.000639074 0.00577304 0.0558295 -0.000931038 0.00967165 2.14163e-15 0.0 6.52262e-17 6.46361e-15 3.18055e-15 1.73937e-16 -0.0 0.0 0.0 -0.0 0.0 0.0 1.09202e-15 -3.88251e-19 9.93923e-17 2.58175e-14 2.04997e-16 1.59028e-15 3.90165e-13 -1.15295e-13 9.54166e-15 4.4505e-12 1.1701e-13 1.17681e-13 1.05002e-11 4.3594e-16 2.79889e-13 1.8128e-11 6.36111e-15 4.68337e-13 1.0507e-11 2.38542e-15 2.67167e-13 7.73091 5.47488 0.417314 1.05009e-11 8.94531e-16 2.73528e-13 2.90554 0.965183 0.102902 1.0508e-11 6.95746e-16 2.70347e-13 10.2786 0.731801 0.0259123 1.05006e-11 1.98785e-15 2.76708e-13 2.22167 -0.733487 -0.20892 1.09468e-15 1.94126e-19 -9.93923e-17 1.95139e-14 -9.93923e-17 -3.97569e-16 3.87431e-13 1.15693e-13 3.18055e-15 4.45347e-12 -1.25458e-13 1.24042e-13 1.0502e-11 -2.04641e-14 2.60805e-13 1.81419e-11 -3.49861e-14 4.69927e-13 1.04966e-11 -1.86858e-14 2.70347e-13 -7.73091 5.47488 -0.417314 1.05032e-11 -2.05742e-14 2.67167e-13 -2.90554 0.965183 -0.102902 1.04919e-11 -1.98785e-14 2.68757e-13 -10.2786 0.731801 -0.0259123 1.05022e-11 -1.90833e-14 2.63986e-13 -2.22167 -0.733487 0.20892 -2.03217e-16 0.0 -3.88251e-19 0.677487 -3.60113 -0.0536494 -0.00454018 0.970123 -0.0387447 -0.524691 2.63023 0.113977 2.03217e-16 0.0 3.88251e-19 -0.36939 -2.81566 0.0342633 0.00682577 -0.452698 0.0599319 0.522486 3.26753 -0.126812
36.4712 83.0254 -165.86 -3.0577 -2.5298 9.0217 -0.354837 -1.46394 2.43676 1.69362 -0.476427 0.735855 0.565568 1.68979 -0.624597 -0.460547 -8.813 -1.47421 -0.0 0.0 0.0 -0.0 0.0 0.0 3.04237e-14 -5.66224e-14 -1.61353e-14 22.757 6.84982 -2.90792 -6.35563 -3.49495 9.17925 0.0143829 2.66111 0.372539 -1.5243e-10 1.665e-10 -1.72456e-10 -2.64305e-10 2.87482e-10 -2.96805e-10 -1.52424e-10 1.66503e-10 -1.72473e-10 7.73091 5.47488 0.417314 -1.52427e-10 1.665e-10 -1.72462e-10 2.90554 0.965183 0.102902 -1.52422e-10 1.66503e-10 -1.72466e-10 10.2786 0.731801 0.0259123 -1.52427e-10 1.66504e-10 -1.72461e-10 2.22167 -0.733487 -0.20892 3.0408e-14 -5.66229e-14 -1.635e-14 -23.3436 12.2259 1.55834 5.16331 -2.57059 -7.80598 -0.000893444 -0.666093 0.0935908 -1.83202e-10 -3.98247e-10 -2.72485e-10 -3.17375e-10 -6.88988e-10 -4.71151e-10 -1.83207e-10 -3.98246e-10 -2.72477e-10 -7.73091 5.47488 -0.417314 -1.83203e-10 -3.98249e-10 -2.72479e-10 -2.90554 0.965183 -0.102902 -1.83212e-10 -3.98246e-10 -2.72478e-10 -10.2786 0.731801 -0.0259123 -1.83201e-10 -3.98244e-10 -2.72482e-10 -2.22167 -0.733487 0.20892 -2.03217e-16 0.0 -3.88251e-19 0.0995087 -9.23079 -0.0712194 0.0407425 10.2633 0.157885 -1.00646 -4.95661 -2.92496 2.03217e-16 0.0 3.88251e-19 -0.186186 -8.97225 0.765639 -0.0373065 9.26249 -0.13132 0.730826 -6.64599 1.3121
36.5739 83.0833 -165.647 -2.5466 -2.6808 8.9764 -0.812776 -2.99747 5.01332 3.44366 -0.987141 1.50461 1.20102 3.47666 -1.28667 -1.46653 -18.1044 -3.15334 -0.0 0.0 0.0 -0.0 0.0 0.0 6.47181e-14 -1.24488e-13 -3.36598e-14 47.5878 14.0378 -6.14102 -11.8795 -6.89774 19.0014 -0.00818396 5.469 0.768358 -3.51998e-10 3.62679e-10 -3.64875e-10 -6.10151e-10 6.26067e-10 -6.27736e-10 -3.51993e-10 3.62683e-10 -3.64896e-10 7.73091 5.47488 0.417314 -3.51992e-10 3.62679e-10 -3.6488e-10 2.90554 0.965183 0.102902 -3.51989e-10 3.62685e-10 -3.64885e-10 10.2786 0.731801 0.0259123 -3.51992e-10 3.62685e-10 -3.64882e-10 2.22167 -0.733487 -0.20892 6.46826e-14 -1.2449e-13 -3.38928e-14 -48.8223 25.1139 3.46439 9.86493 -5.12697 -16.1042 0.000528908 -1.36288 0.191538 -3.93033e-10 -8.60219e-10 -5.96741e-10 -6.80862e-10 -1.48821e-09 -1.03186e-09 -3.93039e-10 -8.60219e-10 -5.96735e-10 -7.73091 5.47488 -0.417314 -3.93036e-10 -8.60222e-10 -5.96736e-10 -2.90554 0.965183 -0.102902 -3.93043e-10 -8.60216e-10 -5.96736e-10 -10.2786 0.731801 -0.0259123 -3.93031e-10 -8.60214e-10 -5.9674e-10 -2.22167 -0.733487 0.20892 -2.03217e-16 0.0 -3.88251e-19 -0.527937 -15.1916 -0.11697 0.0151594 20.104 0.38384 -2.40115 -12.9216 -6.24817 2.03217e-16 0.0 3.88251e-19 0.177857 -15.4763 1.57656 -0.00988969 19.5358 -0.350182 1.51312 -17.1148 2.94395
36.5539 83.1174 -165.646 -2.5937 -2.9135 9.1411 -1.09723 -4.35886 7.31762 5.00536 -1.4265 2.18882 1.80758 5.06696 -1.88033 -2.87477 -26.3648 -4.87891 -0.0 0.0 0.0 -0.0 0.0 0.0 8.9087e-14 -1.69866e-13 -4.86048e-14 70.4652 20.3306 -9.24175 -15.8137 -9.41008 27.8934 -0.0615246 7.98198 1.12734 -4.7829e-10 4.99499e-10 -5.17928e-10 -8.29172e-10 8.62432e-10 -8.91351e-10 -4.78286e-10 4.99504e-10 -5.17953e-10 7.73091 5.47488 0.417314 -4.78282e-10 4.995e-10 -5.17933e-10 2.90554 0.965183 0.102902 -4.78281e-10 4.99507e-10 -5.17939e-10 10.2786 0.731801 0.0259123 -4.78282e-10 4.99508e-10 -5.17937e-10 2.22167 -0.733487 -0.20892 8.90346e-14 -1.69869e-13 -4.88513e-14 -72.4375 36.5554 5.69119 13.4401 -7.14043 -23.5881 0.00385127 -1.99826 0.280924 -5.70609e-10 -1.1947e-09 -8.17975e-10 -9.88409e-10 -2.06689e-09 -1.41439e-09 -5.70615e-10 -1.1947e-09 -8.17971e-10 -7.73091 5.47488 -0.417314 -5.70615e-10 -1.1947e-09 -8.17971e-10 -2.90554 0.965183 -0.102902 -5.7062e-10 -1.1947e-09 -8.17972e-10 -10.2786 0.731801 -0.0259123 -5.70606e-10 -1.19469e-09 -8.17975e-10 -2.22167 -0.733487 0.20892 -2.03217e-16 0.0 -3.88251e-19 -1.0677 -20.4901 -0.110816 -0.0824166 28.8482 0.62057 -4.49591 -19.8927 -9.54409 2.03217e-16 0.0 3.88251e-19 0.682423 -21.2713 2.36132 0.0903733 28.6917 -0.579885 2.77724 -26.403 4.64889
